<?xml version="1.0" encoding="utf-8"?>
<!-- Generator: Adobe Illustrator 24.3.0, SVG Export Plug-In . SVG Version: 6.00 Build 0)  -->
<svg version="1.1" id="Layer_1" xmlns="http://www.w3.org/2000/svg" xmlns:xlink="http://www.w3.org/1999/xlink" x="0px" y="0px"
	 viewBox="0 0 878 182" style="enable-background:new 0 0 878 182;" xml:space="preserve">
<style type="text/css">
	.st0{fill:url(#SVGID_1_);}
	.st1{fill:url(#SVGID_2_);}
	.st2{fill:url(#SVGID_3_);}
	.st3{fill:url(#SVGID_4_);}
	.st4{fill:url(#SVGID_5_);}
	.st5{fill:url(#SVGID_6_);}
	.st6{fill:url(#SVGID_7_);}
	.st7{fill:#0B5567;}
	.st8{fill:#15A9CE;}
</style>
<g>
	<g>
		<linearGradient id="SVGID_1_" gradientUnits="userSpaceOnUse" x1="256.9209" y1="89.5072" x2="596.0654" y2="89.5072">
			<stop  offset="0" style="stop-color:#FFFFFF"/>
			<stop  offset="0" style="stop-color:#15A9CE"/>
			<stop  offset="0.2477" style="stop-color:#128EAD"/>
			<stop  offset="0.5736" style="stop-color:#0E6F87"/>
			<stop  offset="0.8359" style="stop-color:#0C5C70"/>
			<stop  offset="1" style="stop-color:#0B5567"/>
			<stop  offset="1" style="stop-color:#000000"/>
		</linearGradient>
		<path class="st0" d="M273.4,71.4h-16.5v-6h39.8v6h-16.5v42.2h-6.8V71.4z"/>
		<linearGradient id="SVGID_2_" gradientUnits="userSpaceOnUse" x1="256.9209" y1="89.5072" x2="596.0654" y2="89.5072">
			<stop  offset="0" style="stop-color:#FFFFFF"/>
			<stop  offset="0" style="stop-color:#15A9CE"/>
			<stop  offset="0.2477" style="stop-color:#128EAD"/>
			<stop  offset="0.5736" style="stop-color:#0E6F87"/>
			<stop  offset="0.8359" style="stop-color:#0C5C70"/>
			<stop  offset="1" style="stop-color:#0B5567"/>
			<stop  offset="1" style="stop-color:#000000"/>
		</linearGradient>
		<path class="st1" d="M312.8,110.9c-3.9-2.1-7-5.1-9.2-8.8c-2.2-3.8-3.3-8-3.3-12.6c0-4.6,1.1-8.8,3.3-12.6
			c2.2-3.8,5.3-6.7,9.2-8.8c3.9-2.1,8.3-3.2,13.1-3.2c4.8,0,9.2,1.1,13.1,3.2c3.9,2.1,6.9,5.1,9.1,8.8c2.2,3.7,3.3,7.9,3.3,12.6
			s-1.1,8.9-3.3,12.6s-5.2,6.7-9.1,8.8c-3.9,2.1-8.3,3.2-13.1,3.2C321.1,114.1,316.7,113.1,312.8,110.9z M335.5,105.6
			c2.8-1.6,5-3.8,6.7-6.6c1.6-2.8,2.4-6,2.4-9.5c0-3.5-0.8-6.6-2.4-9.5c-1.6-2.8-3.9-5-6.7-6.6c-2.8-1.6-6-2.4-9.5-2.4
			c-3.5,0-6.7,0.8-9.6,2.4c-2.9,1.6-5.1,3.8-6.7,6.6c-1.6,2.8-2.4,6-2.4,9.5c0,3.5,0.8,6.6,2.4,9.5c1.6,2.8,3.9,5,6.7,6.6
			c2.9,1.6,6.1,2.4,9.6,2.4C329.5,108,332.7,107.2,335.5,105.6z"/>
		<linearGradient id="SVGID_3_" gradientUnits="userSpaceOnUse" x1="256.9209" y1="89.5072" x2="596.0654" y2="89.5072">
			<stop  offset="0" style="stop-color:#FFFFFF"/>
			<stop  offset="0" style="stop-color:#15A9CE"/>
			<stop  offset="0.2477" style="stop-color:#128EAD"/>
			<stop  offset="0.5736" style="stop-color:#0E6F87"/>
			<stop  offset="0.8359" style="stop-color:#0C5C70"/>
			<stop  offset="1" style="stop-color:#0B5567"/>
			<stop  offset="1" style="stop-color:#000000"/>
		</linearGradient>
		<path class="st2" d="M366.9,108.6c-3.6-3.7-5.4-8.9-5.4-15.8V65.4h6.9v27.1c0,10.3,4.5,15.5,13.5,15.5c4.4,0,7.8-1.3,10.1-3.8
			c2.3-2.5,3.5-6.4,3.5-11.7V65.4h6.7v27.4c0,6.9-1.8,12.2-5.4,15.8c-3.6,3.6-8.6,5.5-15,5.5C375.5,114.1,370.5,112.3,366.9,108.6z"
			/>
		<linearGradient id="SVGID_4_" gradientUnits="userSpaceOnUse" x1="256.9209" y1="89.5072" x2="596.0654" y2="89.5072">
			<stop  offset="0" style="stop-color:#FFFFFF"/>
			<stop  offset="0" style="stop-color:#15A9CE"/>
			<stop  offset="0.2477" style="stop-color:#128EAD"/>
			<stop  offset="0.5736" style="stop-color:#0E6F87"/>
			<stop  offset="0.8359" style="stop-color:#0C5C70"/>
			<stop  offset="1" style="stop-color:#0B5567"/>
			<stop  offset="1" style="stop-color:#000000"/>
		</linearGradient>
		<path class="st3" d="M448.6,113.6l-10.4-14.8c-1.3,0.1-2.3,0.1-3,0.1h-11.9v14.6h-6.9V65.4h18.8c6.2,0,11.1,1.5,14.7,4.5
			c3.6,3,5.4,7.1,5.4,12.3c0,3.7-0.9,6.9-2.8,9.5c-1.8,2.6-4.4,4.5-7.8,5.7l11.4,16.2H448.6z M444.9,90.3c2.3-1.9,3.4-4.6,3.4-8
			c0-3.5-1.1-6.2-3.4-8c-2.3-1.9-5.6-2.8-10-2.8h-11.7v21.7H435C439.3,93.1,442.6,92.1,444.9,90.3z"/>
		<linearGradient id="SVGID_5_" gradientUnits="userSpaceOnUse" x1="256.9209" y1="89.5072" x2="596.0654" y2="89.5072">
			<stop  offset="0" style="stop-color:#FFFFFF"/>
			<stop  offset="0" style="stop-color:#15A9CE"/>
			<stop  offset="0.2477" style="stop-color:#128EAD"/>
			<stop  offset="0.5736" style="stop-color:#0E6F87"/>
			<stop  offset="0.8359" style="stop-color:#0C5C70"/>
			<stop  offset="1" style="stop-color:#0B5567"/>
			<stop  offset="1" style="stop-color:#000000"/>
		</linearGradient>
		<path class="st4" d="M469.9,112.4c-3.4-1.1-6-2.6-7.9-4.4l2.5-5.4c1.8,1.7,4.2,3,7,4c2.9,1,5.8,1.5,8.8,1.5c4,0,7-0.7,8.9-2
			c2-1.4,3-3.2,3-5.4c0-1.7-0.5-3-1.6-4s-2.4-1.8-4-2.4c-1.6-0.6-3.8-1.2-6.7-1.9c-3.6-0.9-6.5-1.7-8.8-2.6c-2.2-0.9-4.1-2.2-5.7-4
			c-1.6-1.8-2.4-4.3-2.4-7.3c0-2.6,0.7-4.9,2-6.9c1.4-2.1,3.4-3.7,6.2-5c2.8-1.2,6.2-1.9,10.2-1.9c2.8,0,5.6,0.4,8.4,1.1
			c2.8,0.7,5.1,1.8,7.1,3.2l-2.3,5.5c-2-1.3-4.2-2.3-6.5-2.9c-2.3-0.7-4.5-1-6.7-1c-3.9,0-6.8,0.7-8.8,2.1c-1.9,1.4-2.9,3.3-2.9,5.5
			c0,1.7,0.5,3,1.7,4c1.1,1,2.5,1.8,4.1,2.4c1.6,0.6,3.8,1.2,6.6,1.8c3.6,0.9,6.5,1.7,8.7,2.6c2.2,0.9,4.1,2.2,5.7,4
			c1.6,1.8,2.4,4.2,2.4,7.2c0,2.5-0.7,4.8-2.1,6.9c-1.4,2.1-3.5,3.7-6.3,5c-2.8,1.2-6.2,1.8-10.3,1.8
			C476.8,114.1,473.3,113.6,469.9,112.4z"/>
		<linearGradient id="SVGID_6_" gradientUnits="userSpaceOnUse" x1="256.9209" y1="89.5072" x2="596.0654" y2="89.5072">
			<stop  offset="0" style="stop-color:#FFFFFF"/>
			<stop  offset="0" style="stop-color:#15A9CE"/>
			<stop  offset="0.2477" style="stop-color:#128EAD"/>
			<stop  offset="0.5736" style="stop-color:#0E6F87"/>
			<stop  offset="0.8359" style="stop-color:#0C5C70"/>
			<stop  offset="1" style="stop-color:#0B5567"/>
			<stop  offset="1" style="stop-color:#000000"/>
		</linearGradient>
		<path class="st5" d="M524.8,92.2l-8.8,8.9v12.4h-6.9V65.4h6.9v26.9l26.1-26.9h7.8l-20.6,21.7l21.9,26.5h-8L524.8,92.2z"/>
		<linearGradient id="SVGID_7_" gradientUnits="userSpaceOnUse" x1="256.9209" y1="89.5072" x2="596.0654" y2="89.5072">
			<stop  offset="0" style="stop-color:#FFFFFF"/>
			<stop  offset="0" style="stop-color:#15A9CE"/>
			<stop  offset="0.2477" style="stop-color:#128EAD"/>
			<stop  offset="0.5736" style="stop-color:#0E6F87"/>
			<stop  offset="0.8359" style="stop-color:#0C5C70"/>
			<stop  offset="1" style="stop-color:#0B5567"/>
			<stop  offset="1" style="stop-color:#000000"/>
		</linearGradient>
		<path class="st6" d="M576.9,96.9v16.6h-6.8V96.8L551,65.4h7.4l15.4,25.4l15.5-25.4h6.8L576.9,96.9z"/>
	</g>
</g>
<g>
	<path class="st7" d="M191.1,142.8c25.5,20.4,41.8-40.5,1.2-51.7c-34.1-9.4-68.4,6.7-102.8,44.5C89.6,135.6,153.1,112.4,191.1,142.8
		z"/>
	<path class="st8" d="M90.1,135.1c24.4-25.4,65.1-53.6,102.9-43.2c8.8,2.5,15.1,7.6,19.1,13.7l-35.8-72.2
		c-5.1-8.2-18.2-6.5-25.6-0.2l-94.6,79.3c-8.6,7.4-9.1,20.5-1.1,28.5c7,7,18.2,7.7,25.9,1.4L90.1,135.1z"/>
</g>
</svg>
